# 3ds Max Wavefront OBJ Exporter v0.97b - (c)2007 guruware
# 创建的文件:24.07.2017 10:06:33

mtllib IKE160195.mtl

#
# object Generic_Models
#

#
# object Generic_Models
#

v  -613.9672 450.0000 -501.8083
v  -613.9672 450.0000 -81.8083
v  986.0328 450.0000 -501.8083
v  986.0328 450.0000 -81.8083
v  986.0328 410.0000 -81.8083
v  -613.9672 410.0000 -81.8083
v  986.0328 410.0000 -501.8083
v  -613.9672 410.0000 -501.8083
# 8 vertices

vn 0.0000 1.0000 -0.0000
vn 0.0000 -1.0000 -0.0000
vn 0.0000 0.0000 -1.0000
vn -1.0000 0.0000 -0.0000
vn 0.0000 0.0000 1.0000
vn 1.0000 0.0000 -0.0000
# 6 vertex normals

vt 0.0000 1.0000 0.0000
vt 0.0000 0.0000 0.0000
vt 1.0000 1.0000 0.0000
vt 1.0000 0.0000 0.0000
vt -0.0000 1.0000 0.0000
vt -0.0000 0.0000 0.0000
# 6 texture coords

g Generic_Models
usemtl 56
s 1
f 1/1/1 2/2/1 3/3/1 
f 2/2/1 4/4/1 3/3/1 
f 5/2/2 6/4/2 7/1/2 
f 6/4/2 8/3/2 7/1/2 
f 3/5/3 7/6/3 1/3/3 
f 7/6/3 8/4/3 1/3/3 
f 1/1/4 8/2/4 2/3/4 
f 8/2/4 6/4/4 2/3/4 
f 2/1/5 6/2/5 4/3/5 
f 6/2/5 5/4/5 4/3/5 
f 4/1/6 5/2/6 3/3/6 
f 5/2/6 7/4/6 3/3/6 
# 12 faces

#
# object Generic_Models
#

#
# object Generic_Models
#

v  -513.9672 40.0000 -501.8083
v  -513.9672 40.0000 -139.6543
v  886.0328 40.0000 -501.8083
v  886.0328 40.0000 -139.6543
v  886.0328 -0.0000 -139.6543
v  -513.9672 -0.0000 -139.6543
v  886.0328 -0.0000 -501.8083
v  -513.9672 -0.0000 -501.8083
# 8 vertices

vn 0.0000 1.0000 -0.0000
vn 0.0000 -1.0000 -0.0000
vn 0.0000 0.0000 -1.0000
vn -1.0000 0.0000 -0.0000
vn 0.0000 0.0000 1.0000
vn 1.0000 0.0000 -0.0000
# 6 vertex normals

vt 0.0000 1.0000 0.0000
vt 0.0000 0.0000 0.0000
vt 1.0000 1.0000 0.0000
vt 1.0000 0.0000 0.0000
# 4 texture coords

g Generic_Models
usemtl 56
s 1
f 9/7/7 10/8/7 11/9/7 
f 10/8/7 12/10/7 11/9/7 
f 13/8/8 14/10/8 15/7/8 
f 14/10/8 16/9/8 15/7/8 
f 11/7/9 15/8/9 9/9/9 
f 15/8/9 16/10/9 9/9/9 
f 9/7/10 16/8/10 10/9/10 
f 16/8/10 14/10/10 10/9/10 
f 10/7/11 14/8/11 12/9/11 
f 14/8/11 13/10/11 12/9/11 
f 12/7/12 13/8/12 11/9/12 
f 13/8/12 15/10/12 11/9/12 
# 12 faces

#
# object Generic_Models
#

#
# object Generic_Models
#

v  -613.9672 410.0000 -101.2803
v  -613.9672 60.0000 -101.2803
v  -593.9672 410.0000 -101.2803
v  -593.9672 60.0000 -101.2803
v  -593.9672 60.0000 -501.8084
v  -613.9672 60.0000 -501.8084
v  -593.9672 410.0000 -501.8084
v  -613.9672 410.0000 -501.8084
# 8 vertices

vn 0.0000 0.0000 1.0000
vn 0.0000 0.0000 -1.0000
vn 0.0000 1.0000 -0.0000
vn -1.0000 0.0000 -0.0000
vn 0.0000 -1.0000 -0.0000
vn 1.0000 0.0000 -0.0000
# 6 vertex normals

vt 0.0000 1.0000 0.0000
vt 0.0000 0.0000 0.0000
vt 1.0000 1.0000 0.0000
vt 1.0000 0.0000 0.0000
# 4 texture coords

g Generic_Models
usemtl 56
s 1
f 17/11/13 18/12/13 19/13/13 
f 18/12/13 20/14/13 19/13/13 
f 21/12/14 22/14/14 23/11/14 
f 22/14/14 24/13/14 23/11/14 
f 19/14/15 23/13/15 17/12/15 
f 23/13/15 24/11/15 17/12/15 
f 17/13/16 24/11/16 18/14/16 
f 24/11/16 22/12/16 18/14/16 
f 18/14/17 22/13/17 20/12/17 
f 22/13/17 21/11/17 20/12/17 
f 20/12/18 21/14/18 19/11/18 
f 21/14/18 23/13/18 19/11/18 
# 12 faces

#
# object Generic_Models
#

#
# object Generic_Models
#

v  966.0328 60.0000 -101.2803
v  986.0328 60.0000 -101.2803
v  966.0328 410.0000 -101.2803
v  986.0328 410.0000 -101.2803
v  986.0328 410.0000 -501.8084
v  986.0328 60.0000 -501.8084
v  966.0328 410.0000 -501.8084
v  966.0328 60.0000 -501.8084
# 8 vertices

vn 0.0000 0.0000 1.0000
vn 0.0000 0.0000 -1.0000
vn 0.0000 1.0000 -0.0000
vn 1.0000 0.0000 -0.0000
vn 0.0000 -1.0000 -0.0000
vn -1.0000 0.0000 -0.0000
# 6 vertex normals

vt 0.0000 0.0000 0.0000
vt 1.0000 0.0000 0.0000
vt 0.0000 1.0000 0.0000
vt 1.0000 1.0000 0.0000
# 4 texture coords

g Generic_Models
usemtl 56
s 1
f 25/15/19 26/16/19 27/17/19 
f 26/16/19 28/18/19 27/17/19 
f 29/17/20 30/15/20 31/18/20 
f 30/15/20 32/16/20 31/18/20 
f 28/16/21 29/18/21 27/15/21 
f 29/18/21 31/17/21 27/15/21 
f 26/15/22 30/16/22 28/17/22 
f 30/16/22 29/18/22 28/17/22 
f 25/16/23 32/18/23 26/15/23 
f 32/18/23 30/17/23 26/15/23 
f 27/18/24 31/17/24 25/16/24 
f 31/17/24 32/15/24 25/16/24 
# 12 faces

#
# object Generic_Models
#

#
# object Generic_Models
#

v  986.0328 60.0000 -100.4803
v  -613.9672 60.0000 -100.4803
v  986.0328 40.0000 -100.4803
v  -613.9672 40.0000 -100.4803
v  -613.9672 40.0000 -501.8084
v  -613.9672 60.0000 -501.8084
v  986.0328 40.0000 -501.8084
v  986.0328 60.0000 -501.8084
# 8 vertices

vn 0.0000 0.0000 1.0000
vn 0.0000 0.0000 -1.0000
vn 1.0000 0.0000 -0.0000
vn 0.0000 1.0000 -0.0000
vn -1.0000 0.0000 -0.0000
vn 0.0000 -1.0000 -0.0000
# 6 vertex normals

vt 1.0000 1.0000 0.0000
vt 0.0000 1.0000 0.0000
vt 1.0000 0.0000 0.0000
vt 0.0000 0.0000 0.0000
vt -0.0000 1.0000 0.0000
vt -0.0000 0.0000 0.0000
# 6 texture coords

g Generic_Models
usemtl 56
s 1
f 33/19/25 34/20/25 35/21/25 
f 34/20/25 36/22/25 35/21/25 
f 37/21/26 38/19/26 39/22/26 
f 38/19/26 40/20/26 39/22/26 
f 35/22/27 39/21/27 33/20/27 
f 39/21/27 40/19/27 33/20/27 
f 33/21/28 40/19/28 34/22/28 
f 40/19/28 38/20/28 34/22/28 
f 34/19/29 38/23/29 36/21/29 
f 38/23/29 37/24/29 36/21/29 
f 36/21/30 37/19/30 35/24/30 
f 37/19/30 39/23/30 35/24/30 
# 12 faces

#
# object Generic_Models
#

#
# object Generic_Models
#

v  -613.9672 405.0000 -81.8084
v  -613.9672 40.0000 -81.8084
v  -43.9672 405.0000 -81.8084
v  -43.9672 40.0000 -81.8084
v  -43.9672 40.0000 -100.4803
v  -613.9672 40.0000 -100.4803
v  -43.9672 405.0000 -100.4803
v  -613.9672 405.0000 -100.4803
# 8 vertices

vn 0.0000 0.0000 1.0000
vn 0.0000 0.0000 -1.0000
vn 0.0000 1.0000 -0.0000
vn -1.0000 0.0000 -0.0000
vn 0.0000 -1.0000 -0.0000
vn 1.0000 0.0000 -0.0000
# 6 vertex normals

vt 0.0000 1.0000 0.0000
vt 0.0000 0.0000 0.0000
vt 1.0000 1.0000 0.0000
vt 1.0000 0.0000 0.0000
# 4 texture coords

g Generic_Models
usemtl 56
s 1
f 41/25/31 42/26/31 43/27/31 
f 42/26/31 44/28/31 43/27/31 
f 45/26/32 46/28/32 47/25/32 
f 46/28/32 48/27/32 47/25/32 
f 43/28/33 47/27/33 41/26/33 
f 47/27/33 48/25/33 41/26/33 
f 41/27/34 48/25/34 42/28/34 
f 48/25/34 46/26/34 42/28/34 
f 42/28/35 46/27/35 44/26/35 
f 46/27/35 45/25/35 44/26/35 
f 44/26/36 45/28/36 43/25/36 
f 45/28/36 47/27/36 43/25/36 
# 12 faces

#
# object Generic_Models
#

#
# object Generic_Models
#

v  416.0328 40.0000 -81.8084
v  986.0328 40.0000 -81.8084
v  416.0328 405.0000 -81.8084
v  986.0328 405.0000 -81.8084
v  986.0328 405.0000 -100.4803
v  986.0328 40.0000 -100.4803
v  416.0328 405.0000 -100.4803
v  416.0328 40.0000 -100.4803
# 8 vertices

vn 0.0000 0.0000 1.0000
vn 0.0000 0.0000 -1.0000
vn 0.0000 1.0000 -0.0000
vn 1.0000 0.0000 -0.0000
vn 0.0000 -1.0000 -0.0000
vn -1.0000 0.0000 -0.0000
# 6 vertex normals

vt 0.0000 0.0000 0.0000
vt 1.0000 0.0000 0.0000
vt 0.0000 1.0000 0.0000
vt 1.0000 1.0000 0.0000
# 4 texture coords

g Generic_Models
usemtl 56
s 1
f 49/29/37 50/30/37 51/31/37 
f 50/30/37 52/32/37 51/31/37 
f 53/31/38 54/29/38 55/32/38 
f 54/29/38 56/30/38 55/32/38 
f 52/30/39 53/32/39 51/29/39 
f 53/32/39 55/31/39 51/29/39 
f 50/29/40 54/30/40 52/31/40 
f 54/30/40 53/32/40 52/31/40 
f 49/30/41 56/32/41 50/29/41 
f 56/32/41 54/31/41 50/29/41 
f 51/32/42 55/31/42 49/30/42 
f 55/31/42 56/29/42 49/30/42 
# 12 faces

#
# object Generic_Models
#

#
# object Generic_Models
#

v  -63.9672 410.0000 -101.2803
v  -63.9672 60.0000 -101.2803
v  -43.9672 410.0000 -101.2803
v  -43.9672 60.0000 -101.2803
v  -43.9672 60.0000 -501.8084
v  -63.9672 60.0000 -501.8084
v  -43.9672 410.0000 -501.8084
v  -63.9672 410.0000 -501.8084
# 8 vertices

vn 0.0000 0.0000 1.0000
vn 0.0000 0.0000 -1.0000
vn 0.0000 1.0000 -0.0000
vn -1.0000 0.0000 -0.0000
vn 0.0000 -1.0000 -0.0000
vn 1.0000 0.0000 -0.0000
# 6 vertex normals

vt 0.0000 1.0000 0.0000
vt 0.0000 0.0000 0.0000
vt 1.0000 1.0000 0.0000
vt 1.0000 0.0000 0.0000
# 4 texture coords

g Generic_Models
usemtl 56
s 1
f 57/33/43 58/34/43 59/35/43 
f 58/34/43 60/36/43 59/35/43 
f 61/34/44 62/36/44 63/33/44 
f 62/36/44 64/35/44 63/33/44 
f 59/36/45 63/35/45 57/34/45 
f 63/35/45 64/33/45 57/34/45 
f 57/35/46 64/33/46 58/36/46 
f 64/33/46 62/34/46 58/36/46 
f 58/36/47 62/35/47 60/34/47 
f 62/35/47 61/33/47 60/34/47 
f 60/34/48 61/36/48 59/33/48 
f 61/36/48 63/35/48 59/33/48 
# 12 faces

#
# object Generic_Models
#

#
# object Generic_Models
#

v  416.0328 60.0000 -101.2803
v  436.0328 60.0000 -101.2803
v  416.0328 410.0000 -101.2803
v  436.0328 410.0000 -101.2803
v  436.0328 410.0000 -501.8084
v  436.0328 60.0000 -501.8084
v  416.0328 410.0000 -501.8084
v  416.0328 60.0000 -501.8084
# 8 vertices

vn 0.0000 0.0000 1.0000
vn 0.0000 0.0000 -1.0000
vn 0.0000 1.0000 -0.0000
vn 1.0000 0.0000 -0.0000
vn 0.0000 -1.0000 -0.0000
vn -1.0000 0.0000 -0.0000
# 6 vertex normals

vt 0.0000 0.0000 0.0000
vt 1.0000 0.0000 0.0000
vt 0.0000 1.0000 0.0000
vt 1.0000 1.0000 0.0000
# 4 texture coords

g Generic_Models
usemtl 56
s 1
f 65/37/49 66/38/49 67/39/49 
f 66/38/49 68/40/49 67/39/49 
f 69/39/50 70/37/50 71/40/50 
f 70/37/50 72/38/50 71/40/50 
f 68/38/51 69/40/51 67/37/51 
f 69/40/51 71/39/51 67/37/51 
f 66/37/52 70/38/52 68/39/52 
f 70/38/52 69/40/52 68/39/52 
f 65/38/53 72/40/53 66/37/53 
f 72/40/53 70/39/53 66/37/53 
f 67/40/54 71/39/54 65/38/54 
f 71/39/54 72/37/54 65/38/54 
# 12 faces

#
# object Generic_Models
#

#
# object Generic_Models
#

v  436.0328 60.0000 -481.8083
v  966.0328 60.0000 -481.8083
v  436.0328 410.0000 -481.8083
v  966.0328 410.0000 -481.8083
v  966.0328 410.0000 -501.8083
v  966.0328 60.0000 -501.8083
v  436.0328 410.0000 -501.8083
v  436.0328 60.0000 -501.8083
# 8 vertices

vn 0.0000 0.0000 1.0000
vn 0.0000 0.0000 -1.0000
vn -1.0000 0.0000 -0.0000
vn 0.0000 -1.0000 -0.0000
vn 1.0000 0.0000 -0.0000
vn 0.0000 1.0000 -0.0000
# 6 vertex normals

vt 0.0000 0.0000 0.0000
vt 1.0000 0.0000 0.0000
vt 0.0000 1.0000 0.0000
vt 1.0000 1.0000 0.0000
# 4 texture coords

g Generic_Models
usemtl 56
s 1
f 73/41/55 74/42/55 75/43/55 
f 74/42/55 76/44/55 75/43/55 
f 77/43/56 78/41/56 79/44/56 
f 78/41/56 80/42/56 79/44/56 
f 75/44/57 79/43/57 73/42/57 
f 79/43/57 80/41/57 73/42/57 
f 73/42/58 80/44/58 74/41/58 
f 80/44/58 78/43/58 74/41/58 
f 74/41/59 78/42/59 76/43/59 
f 78/42/59 77/44/59 76/43/59 
f 76/42/60 77/44/60 75/41/60 
f 77/44/60 79/43/60 75/41/60 
# 12 faces

#
# object Generic_Models
#

#
# object Generic_Models
#

v  -593.9672 410.0000 -481.8083
v  -593.9672 60.0000 -481.8083
v  -63.9672 410.0000 -481.8083
v  -63.9672 60.0000 -481.8083
v  -63.9672 60.0000 -501.8083
v  -593.9672 60.0000 -501.8083
v  -63.9672 410.0000 -501.8083
v  -593.9672 410.0000 -501.8083
# 8 vertices

vn 0.0000 0.0000 1.0000
vn 0.0000 0.0000 -1.0000
vn 1.0000 0.0000 -0.0000
vn 0.0000 -1.0000 -0.0000
vn -1.0000 0.0000 -0.0000
vn 0.0000 1.0000 -0.0000
# 6 vertex normals

vt 0.0000 1.0000 0.0000
vt 0.0000 0.0000 0.0000
vt 1.0000 1.0000 0.0000
vt 1.0000 0.0000 0.0000
# 4 texture coords

g Generic_Models
usemtl 56
s 1
f 81/45/61 82/46/61 83/47/61 
f 82/46/61 84/48/61 83/47/61 
f 85/46/62 86/48/62 87/45/62 
f 86/48/62 88/47/62 87/45/62 
f 84/46/63 85/48/63 83/45/63 
f 85/48/63 87/47/63 83/45/63 
f 82/48/64 86/47/64 84/46/64 
f 86/47/64 85/45/64 84/46/64 
f 81/47/65 88/45/65 82/48/65 
f 88/45/65 86/46/65 82/48/65 
f 83/48/66 87/47/66 81/46/66 
f 87/47/66 88/45/66 81/46/66 
# 12 faces

#
# object Generic_Models
#

#
# object Generic_Models
#

v  -43.9672 151.9229 -481.8083
v  416.0328 151.9229 -481.8083
v  -43.9672 410.0000 -481.8083
v  416.0328 410.0000 -481.8083
v  416.0328 410.0000 -501.8083
v  416.0328 151.9229 -501.8083
v  -43.9672 410.0000 -501.8083
v  -43.9672 151.9229 -501.8083
# 8 vertices

vn 0.0000 0.0000 1.0000
vn 0.0000 0.0000 -1.0000
vn -1.0000 0.0000 -0.0000
vn 0.0000 -1.0000 -0.0000
vn 1.0000 0.0000 -0.0000
vn 0.0000 1.0000 -0.0000
# 6 vertex normals

vt 0.0000 0.0000 0.0000
vt 1.0000 0.0000 0.0000
vt 0.0000 1.0000 0.0000
vt 1.0000 1.0000 0.0000
# 4 texture coords

g Generic_Models
usemtl 56
s 1
f 89/49/67 90/50/67 91/51/67 
f 90/50/67 92/52/67 91/51/67 
f 93/51/68 94/49/68 95/52/68 
f 94/49/68 96/50/68 95/52/68 
f 91/52/69 95/51/69 89/50/69 
f 95/51/69 96/49/69 89/50/69 
f 89/50/70 96/52/70 90/49/70 
f 96/52/70 94/51/70 90/49/70 
f 90/49/71 94/50/71 92/51/71 
f 94/50/71 93/52/71 92/51/71 
f 92/50/72 93/52/72 91/49/72 
f 93/52/72 95/51/72 91/49/72 
# 12 faces

#
# object Generic_Models
#

#
# object Generic_Models
#

v  -43.9672 240.1075 -101.2803
v  -43.9672 220.0000 -101.2803
v  416.0328 240.1075 -101.2803
v  416.0328 220.0000 -101.2803
v  416.0328 220.0000 -481.8083
v  -43.9672 220.0000 -481.8083
v  416.0328 240.1075 -481.8083
v  -43.9672 240.1075 -481.8083
# 8 vertices

vn 0.0000 0.0000 1.0000
vn 0.0000 0.0000 -1.0000
vn 0.0000 1.0000 -0.0000
vn -1.0000 0.0000 -0.0000
vn 0.0000 -1.0000 -0.0000
vn 1.0000 0.0000 -0.0000
# 6 vertex normals

vt 0.0000 1.0000 0.0000
vt 0.0000 0.0000 0.0000
vt 1.0000 1.0000 0.0000
vt 1.0000 0.0000 0.0000
# 4 texture coords

g Generic_Models
usemtl 56
s 1
f 97/53/73 98/54/73 99/55/73 
f 98/54/73 100/56/73 99/55/73 
f 101/54/74 102/56/74 103/53/74 
f 102/56/74 104/55/74 103/53/74 
f 99/56/75 103/55/75 97/54/75 
f 103/55/75 104/53/75 97/54/75 
f 97/55/76 104/53/76 98/56/76 
f 104/53/76 102/54/76 98/56/76 
f 98/56/77 102/55/77 100/54/77 
f 102/55/77 101/53/77 100/54/77 
f 100/54/78 101/56/78 99/53/78 
f 101/56/78 103/55/78 99/53/78 
# 12 faces

#
# object Generic_Models
#

#
# object Generic_Models
#

v  726.0328 405.8000 -101.2803
v  726.0328 405.8000 -60.8280
v  726.0328 405.0000 -100.4803
v  726.0328 405.0000 -61.6333
v  726.0328 390.0000 -61.6333
v  726.0328 390.0000 -60.8280
v  726.0328 390.0000 -101.2803
v  726.0328 390.0000 -100.4803
v  672.0566 405.0000 -61.6333
v  672.0566 390.0000 -61.6333
v  672.0566 405.8000 -60.8280
v  672.0566 390.0000 -60.8280
v  672.0566 390.0000 -101.2803
v  672.0566 390.0000 -100.4803
v  672.0566 405.8000 -101.2803
v  672.0566 405.0000 -100.4803
# 16 vertices

vn 1.0000 0.0000 -0.0000
vn -1.0000 0.0000 -0.0000
vn 0.0000 0.0000 1.0000
vn 0.0000 -1.0000 -0.0000
vn 0.0000 0.0000 -1.0000
vn 0.0000 1.0000 -0.0000
# 6 vertex normals

vt 1.0000 1.0000 0.0000
vt 0.0000 1.0000 0.0000
vt 0.9802 0.9494 0.0000
vt 0.0199 0.9494 0.0000
vt 0.0199 0.0000 0.0000
vt 0.0000 0.0000 0.0000
vt 1.0000 0.0000 0.0000
vt 0.9802 0.0000 0.0000
vt 0.9801 0.9494 0.0000
vt 0.9801 0.0000 0.0000
vt -0.0000 0.0000 0.0000
vt 0.0198 0.0000 0.0000
vt -0.0000 1.0000 0.0000
vt 0.0198 0.9494 0.0000
# 14 texture coords

g Generic_Models
usemtl 56
s 1
f 105/57/79 106/58/79 107/59/79 
f 106/58/79 108/60/79 107/59/79 
f 108/60/79 106/58/79 109/61/79 
f 106/58/79 110/62/79 109/61/79 
f 111/63/79 105/57/79 112/64/79 
f 105/57/79 107/59/79 112/64/79 
f 113/65/80 114/66/80 115/57/80 
f 114/66/80 116/63/80 115/57/80 
f 117/67/80 118/68/80 119/69/80 
f 118/68/80 120/70/80 119/69/80 
f 113/65/80 115/57/80 120/70/80 
f 115/57/80 119/69/80 120/70/80 
f 107/57/81 120/58/81 112/63/81 
f 120/58/81 118/62/81 112/63/81 
f 112/62/82 118/63/82 111/58/82 
f 118/63/82 117/57/82 111/58/82 
f 111/62/83 117/63/83 105/58/83 
f 117/63/83 119/57/83 105/58/83 
f 105/57/84 119/58/84 106/63/84 
f 119/58/84 115/62/84 106/63/84 
f 106/57/81 115/58/81 110/63/81 
f 115/58/81 116/62/81 110/63/81 
f 110/62/82 116/63/82 109/58/82 
f 116/63/82 114/57/82 109/58/82 
f 109/62/83 114/63/83 108/58/83 
f 114/63/83 113/57/83 108/58/83 
f 108/62/82 113/63/82 107/58/82 
f 113/63/82 120/57/82 107/58/82 
# 28 faces

#
# object Generic_Models
#

#
# object Generic_Models
#

v  -353.9672 390.0000 -101.2803
v  -353.9672 390.0000 -100.4803
v  -353.9672 405.8000 -101.2803
v  -353.9672 405.0000 -100.4803
v  -353.9672 405.8000 -60.8280
v  -353.9672 405.0000 -61.6333
v  -353.9672 390.0000 -61.6333
v  -353.9672 390.0000 -60.8280
v  -299.9910 390.0000 -60.8280
v  -299.9910 390.0000 -61.6333
v  -299.9910 405.8000 -60.8280
v  -299.9910 405.0000 -61.6333
v  -299.9910 405.8000 -101.2803
v  -299.9910 405.0000 -100.4803
v  -299.9910 390.0000 -100.4803
v  -299.9910 390.0000 -101.2803
# 16 vertices

vn -1.0000 0.0000 -0.0000
vn 1.0000 0.0000 -0.0000
vn 0.0000 0.0000 1.0000
vn 0.0000 -1.0000 -0.0000
vn 0.0000 0.0000 -1.0000
vn 0.0000 1.0000 -0.0000
# 6 vertex normals

vt -0.0000 0.0000 0.0000
vt 0.0198 0.0000 0.0000
vt -0.0000 1.0000 0.0000
vt 0.0198 0.9494 0.0000
vt 1.0000 1.0000 0.0000
vt 0.9801 0.9494 0.0000
vt 0.9801 0.0000 0.0000
vt 1.0000 0.0000 0.0000
vt 0.0000 0.0000 0.0000
vt 0.0199 0.0000 0.0000
vt 0.0000 1.0000 0.0000
vt 0.0199 0.9494 0.0000
vt 0.9802 0.9494 0.0000
vt 0.9802 0.0000 0.0000
# 14 texture coords

g Generic_Models
usemtl 56
s 1
f 121/71/85 122/72/85 123/73/85 
f 122/72/85 124/74/85 123/73/85 
f 123/73/85 124/74/85 125/75/85 
f 124/74/85 126/76/85 125/75/85 
f 126/76/85 127/77/85 125/75/85 
f 127/77/85 128/78/85 125/75/85 
f 129/79/86 130/80/86 131/81/86 
f 130/80/86 132/82/86 131/81/86 
f 133/75/86 131/81/86 134/83/86 
f 131/81/86 132/82/86 134/83/86 
f 134/83/86 135/84/86 133/75/86 
f 135/84/86 136/78/86 133/75/86 
f 122/79/87 135/78/87 124/81/87 
f 135/78/87 134/75/87 124/81/87 
f 121/75/88 136/81/88 122/78/88 
f 136/81/88 135/79/88 122/78/88 
f 123/75/89 133/81/89 121/78/89 
f 133/81/89 136/79/89 121/78/89 
f 125/79/90 131/78/90 123/81/90 
f 131/78/90 133/75/90 123/81/90 
f 128/79/87 129/78/87 125/81/87 
f 129/78/87 131/75/87 125/81/87 
f 127/75/88 130/81/88 128/78/88 
f 130/81/88 129/79/88 128/78/88 
f 126/75/89 132/81/89 127/78/89 
f 132/81/89 130/79/89 127/78/89 
f 124/75/88 134/81/88 126/78/88 
f 134/81/88 132/79/88 126/78/88 
# 28 faces

