# 3ds Max Wavefront OBJ Exporter v0.97b - (c)2007 guruware
# 创建的文件:29.10.2012 10:19:42

mtllib IKE120039-3D.mtl

#
# object Line001
#

v  -1000.0000 0.0000 0.0000
v  -960.0000 0.0000 0.0000
v  -960.0000 1979.9999 0.0001
v  960.0000 1979.9999 0.0001
v  960.0000 0.0000 0.0000
v  1000.0000 0.0000 0.0000
v  1000.0000 2020.0000 0.0001
v  -1000.0000 2020.0000 0.0001
v  -1000.0000 0.0000 280.0000
v  -960.0000 0.0000 280.0000
v  -960.0000 1979.9999 280.0001
v  960.0000 1979.9999 280.0001
v  960.0000 0.0000 280.0000
v  1000.0000 0.0000 280.0000
v  1000.0000 2020.0000 280.0001
v  -1000.0000 2020.0000 280.0001
# 16 vertices

vn 0.0000 -1.0000 -0.0000
vn 0.0000 -1.0000 -0.0000
vn 0.0000 -1.0000 -0.0000
vn 0.0000 -1.0000 -0.0000
vn 1.0000 0.0000 -0.0000
vn 1.0000 0.0000 -0.0000
vn 1.0000 0.0000 -0.0000
vn 1.0000 0.0000 -0.0000
vn 0.0000 -1.0000 -0.0000
vn 0.0000 -1.0000 -0.0000
vn 0.0000 -1.0000 -0.0000
vn 0.0000 -1.0000 -0.0000
vn -1.0000 0.0000 -0.0000
vn -1.0000 0.0000 -0.0000
vn -1.0000 0.0000 -0.0000
vn -1.0000 0.0000 -0.0000
vn 0.0000 -1.0000 -0.0000
vn 0.0000 -1.0000 -0.0000
vn 0.0000 -1.0000 -0.0000
vn 0.0000 -1.0000 -0.0000
vn 1.0000 0.0000 -0.0000
vn 1.0000 0.0000 -0.0000
vn 1.0000 0.0000 -0.0000
vn 1.0000 0.0000 -0.0000
vn 0.0000 1.0000 0.0000
vn 0.0000 1.0000 0.0000
vn 0.0000 1.0000 0.0000
vn 0.0000 1.0000 0.0000
vn -1.0000 0.0000 -0.0000
vn -1.0000 0.0000 -0.0000
vn -1.0000 0.0000 -0.0000
vn -1.0000 0.0000 -0.0000
vn 0.0000 0.0000 -1.0000
vn 0.0000 0.0000 -1.0000
vn 0.0000 0.0000 -1.0000
vn 0.0000 0.0000 -1.0000
vn 0.0000 0.0000 -1.0000
vn 0.0000 0.0000 -1.0000
vn 0.0000 0.0000 -1.0000
vn 0.0000 0.0000 -1.0000
vn 0.0000 0.0000 -1.0000
vn 0.0000 0.0000 -1.0000
vn 0.0000 0.0000 -1.0000
vn 0.0000 0.0000 -1.0000
vn 0.0000 -0.0000 1.0000
vn 0.0000 -0.0000 1.0000
vn 0.0000 -0.0000 1.0000
vn 0.0000 -0.0000 1.0000
vn 0.0000 -0.0000 1.0000
vn 0.0000 -0.0000 1.0000
vn 0.0000 -0.0000 1.0000
vn 0.0000 -0.0000 1.0000
vn 0.0000 -0.0000 1.0000
vn 0.0000 -0.0000 1.0000
vn 0.0000 -0.0000 1.0000
vn 0.0000 -0.0000 1.0000
# 56 vertex normals

vt 0.9795 0.0005 0.9995
vt 0.0005 0.0005 0.9995
vt 0.0005 0.9995 0.9995
vt 0.9995 0.9995 0.9995
vt 0.0205 0.0005 0.0005
vt 0.9995 0.0005 0.0005
vt 0.9995 0.9995 0.0005
vt 0.0005 0.9995 0.0005
vt 0.9995 0.9995 0.0005
vt 0.9795 0.9995 0.0005
vt 0.9795 0.0005 0.0005
vt 0.9995 0.0005 0.0005
vt 0.9995 0.0005 0.0205
vt 0.9995 0.9797 0.0205
vt 0.0005 0.9797 0.0205
vt 0.0005 0.0005 0.0205
vt 0.9795 0.9995 0.9797
vt 0.0205 0.9995 0.9797
vt 0.0205 0.0005 0.9797
vt 0.9795 0.0005 0.9797
vt 0.0005 0.9797 0.9795
vt 0.0005 0.0005 0.9795
vt 0.9995 0.0005 0.9795
vt 0.9995 0.9797 0.9795
vt 0.0205 0.9995 0.0005
vt 0.0005 0.9995 0.0005
vt 0.0005 0.0005 0.0005
vt 0.0205 0.0005 0.0005
vt 0.9995 0.0005 0.9995
vt 0.9995 0.9995 0.9995
vt 0.0005 0.9995 0.9995
vt 0.0005 0.0005 0.9995
vt 0.9995 0.9995 0.9995
vt 0.0005 0.9995 0.9995
vt 0.0005 0.0005 0.9995
vt 0.9995 0.0005 0.9995
vt 0.0005 0.9995 0.0005
vt 0.0005 0.0005 0.0005
vt 0.9995 0.0005 0.0005
vt 0.9995 0.9995 0.0005
vt 0.0205 0.0005 0.9995
vt 0.0005 0.9995 0.9995
vt 0.0205 0.9797 0.9995
vt 0.0205 0.9797 0.9995
vt 0.9995 0.9995 0.9995
vt 0.9795 0.9797 0.9995
vt 0.9795 0.9797 0.9995
vt 0.9995 0.0005 0.9995
vt 0.9795 0.0005 0.0005
vt 0.9995 0.9995 0.0005
vt 0.9795 0.9797 0.0005
vt 0.9795 0.9797 0.0005
vt 0.0005 0.9995 0.0005
vt 0.0205 0.9797 0.0005
vt 0.0205 0.9797 0.0005
vt 0.0005 0.0005 0.0005
# 56 texture coords

g Line001
usemtl 01___Default
s 1
f 1/9/1 2/10/2 10/11/3 9/12/4 
s 4
f 2/13/5 3/14/6 11/15/7 10/16/8 
s 2
f 3/17/9 4/18/10 12/19/11 11/20/12 
s 4
f 4/21/13 5/22/14 13/23/15 12/24/16 
s 2
f 5/25/17 6/26/18 14/27/19 13/28/20 
s 4
f 6/29/21 7/30/22 15/31/23 14/32/24 
s 2
f 7/33/25 8/34/26 16/35/27 15/36/28 
s 4
f 8/37/29 1/38/30 9/39/31 16/40/32 
s 16
f 5/41/33 4/43/34 7/42/35 6/2/36 
f 4/44/37 3/46/38 8/45/39 7/3/40 
f 3/47/41 2/1/42 1/48/43 8/4/44 
f 13/49/45 14/6/46 15/50/47 12/51/48 
f 12/52/49 15/7/50 16/53/51 11/54/52 
f 11/55/53 16/8/54 9/56/55 10/5/56 
# 14 polygons

#
# object Rectangle001
#

v  1000.0000 2020.0000 0.0000
v  -1000.0000 2020.0000 0.0000
v  -1000.0000 0.0000 -0.0000
v  1000.0000 0.0000 -0.0000
v  1000.0000 2020.0000 20.0000
v  -1000.0000 2020.0000 20.0000
v  -1000.0000 0.0000 20.0000
v  1000.0000 0.0000 20.0000
# 8 vertices

vn 0.0000 1.0000 0.0000
vn 0.0000 1.0000 0.0000
vn 0.0000 1.0000 0.0000
vn 0.0000 1.0000 0.0000
vn -1.0000 0.0000 -0.0000
vn -1.0000 0.0000 -0.0000
vn -1.0000 0.0000 -0.0000
vn -1.0000 0.0000 -0.0000
vn 0.0000 -1.0000 -0.0000
vn 0.0000 -1.0000 -0.0000
vn 0.0000 -1.0000 -0.0000
vn 0.0000 -1.0000 -0.0000
vn 1.0000 0.0000 -0.0000
vn 1.0000 0.0000 -0.0000
vn 1.0000 0.0000 -0.0000
vn 1.0000 0.0000 -0.0000
vn 0.0000 0.0000 -1.0000
vn 0.0000 0.0000 -1.0000
vn 0.0000 0.0000 -1.0000
vn 0.0000 0.0000 -1.0000
vn 0.0000 -0.0000 1.0000
vn 0.0000 -0.0000 1.0000
vn 0.0000 -0.0000 1.0000
vn 0.0000 -0.0000 1.0000
# 24 vertex normals

vt 0.9995 0.9995 0.9995
vt 0.0005 0.0005 0.9995
vt 0.0005 0.9995 0.9281
vt 0.9995 0.0005 0.9281
vt 0.9995 0.9995 0.9995
vt 0.0005 0.9995 0.9995
vt 0.0005 0.9281 0.9995
vt 0.9995 0.9281 0.9995
vt 0.0005 0.9995 0.0005
vt 0.0005 0.0005 0.0005
vt 0.0719 0.0005 0.0005
vt 0.0719 0.9995 0.0005
vt 0.9995 0.9995 0.0005
vt 0.0005 0.9995 0.0005
vt 0.0005 0.9281 0.0005
vt 0.9995 0.9281 0.0005
vt 0.9995 0.0005 0.9995
vt 0.9995 0.9995 0.9995
vt 0.9281 0.9995 0.9995
vt 0.9281 0.0005 0.9995
vt 0.9995 0.0005 0.9995
vt 0.0005 0.9995 0.9995
vt 0.0005 0.0005 0.9281
vt 0.9995 0.9995 0.9281
# 24 texture coords

g Rectangle001
usemtl 01___Default
s 1
f 17/61/57 18/62/58 22/63/59 21/64/60 
s 4
f 18/65/61 19/66/62 23/67/63 22/68/64 
s 2
f 19/69/65 20/70/66 24/71/67 23/72/68 
s 4
f 20/73/69 17/74/70 21/75/71 24/76/72 
s 16
f 19/77/73 18/57/74 17/78/75 20/58/76 
f 23/79/77 24/60/78 21/80/79 22/59/80 
# 6 polygons

#
# object Rectangle002
#

v  960.0000 1699.9258 0.0000
v  -960.0000 1699.9258 0.0000
v  -960.0000 1664.9180 -0.0000
v  960.0000 1664.9180 -0.0000
v  960.0000 1699.9257 280.0000
v  -960.0000 1699.9257 280.0000
v  -960.0000 1664.9180 280.0000
v  960.0000 1664.9180 280.0000
# 8 vertices

vn 0.0000 1.0000 0.0000
vn 0.0000 1.0000 0.0000
vn 0.0000 1.0000 0.0000
vn 0.0000 1.0000 0.0000
vn -1.0000 0.0000 -0.0000
vn -1.0000 0.0000 -0.0000
vn -1.0000 0.0000 -0.0000
vn -1.0000 0.0000 -0.0000
vn 0.0000 -1.0000 -0.0000
vn 0.0000 -1.0000 -0.0000
vn 0.0000 -1.0000 -0.0000
vn 0.0000 -1.0000 -0.0000
vn 1.0000 0.0000 -0.0000
vn 1.0000 0.0000 -0.0000
vn 1.0000 0.0000 -0.0000
vn 1.0000 0.0000 -0.0000
vn 0.0000 0.0000 -1.0000
vn 0.0000 0.0000 -1.0000
vn 0.0000 0.0000 -1.0000
vn 0.0000 0.0000 -1.0000
vn 0.0000 -0.0000 1.0000
vn 0.0000 -0.0000 1.0000
vn 0.0000 -0.0000 1.0000
vn 0.0000 -0.0000 1.0000
# 24 vertex normals

vt 0.9795 0.8412 0.9995
vt 0.0205 0.8239 0.9995
vt 0.0205 0.8412 0.0005
vt 0.9795 0.8239 0.0005
vt 0.9795 0.9995 0.8412
vt 0.0205 0.9995 0.8412
vt 0.0205 0.0005 0.8412
vt 0.9795 0.0005 0.8412
vt 0.0005 0.8412 0.0205
vt 0.0005 0.8239 0.0205
vt 0.9995 0.8239 0.0205
vt 0.9995 0.8412 0.0205
vt 0.9795 0.9995 0.8239
vt 0.0205 0.9995 0.8239
vt 0.0205 0.0005 0.8239
vt 0.9795 0.0005 0.8239
vt 0.9995 0.8239 0.9795
vt 0.9995 0.8412 0.9795
vt 0.0005 0.8412 0.9795
vt 0.0005 0.8239 0.9795
vt 0.9795 0.8239 0.9995
vt 0.0205 0.8412 0.9995
vt 0.0205 0.8239 0.0005
vt 0.9795 0.8412 0.0005
# 24 texture coords

g Rectangle002
usemtl 01___Default
s 1
f 25/85/81 26/86/82 30/87/83 29/88/84 
s 4
f 26/89/85 27/90/86 31/91/87 30/92/88 
s 2
f 27/93/89 28/94/90 32/95/91 31/96/92 
s 4
f 28/97/93 25/98/94 29/99/95 32/100/96 
s 16
f 27/101/97 26/81/98 25/102/99 28/82/100 
f 31/103/101 32/84/102 29/104/103 30/83/104 
# 6 polygons

#
# object Rectangle003
#

v  960.0000 1379.9258 0.0000
v  -960.0000 1379.9258 0.0000
v  -960.0000 1344.9180 -0.0000
v  960.0000 1344.9180 -0.0000
v  960.0000 1379.9257 280.0000
v  -960.0000 1379.9257 280.0000
v  -960.0000 1344.9180 280.0000
v  960.0000 1344.9180 280.0000
# 8 vertices

vn 0.0000 1.0000 0.0000
vn 0.0000 1.0000 0.0000
vn 0.0000 1.0000 0.0000
vn 0.0000 1.0000 0.0000
vn -1.0000 0.0000 -0.0000
vn -1.0000 0.0000 -0.0000
vn -1.0000 0.0000 -0.0000
vn -1.0000 0.0000 -0.0000
vn 0.0000 -1.0000 -0.0000
vn 0.0000 -1.0000 -0.0000
vn 0.0000 -1.0000 -0.0000
vn 0.0000 -1.0000 -0.0000
vn 1.0000 0.0000 -0.0000
vn 1.0000 0.0000 -0.0000
vn 1.0000 0.0000 -0.0000
vn 1.0000 0.0000 -0.0000
vn 0.0000 0.0000 -1.0000
vn 0.0000 0.0000 -1.0000
vn 0.0000 0.0000 -1.0000
vn 0.0000 0.0000 -1.0000
vn 0.0000 -0.0000 1.0000
vn 0.0000 -0.0000 1.0000
vn 0.0000 -0.0000 1.0000
vn 0.0000 -0.0000 1.0000
# 24 vertex normals

vt 0.9795 0.6829 0.9995
vt 0.0205 0.6656 0.9995
vt 0.0205 0.6829 0.0005
vt 0.9795 0.6656 0.0005
vt 0.9795 0.9995 0.6829
vt 0.0205 0.9995 0.6829
vt 0.0205 0.0005 0.6829
vt 0.9795 0.0005 0.6829
vt 0.0005 0.6829 0.0205
vt 0.0005 0.6656 0.0205
vt 0.9995 0.6656 0.0205
vt 0.9995 0.6829 0.0205
vt 0.9795 0.9995 0.6656
vt 0.0205 0.9995 0.6656
vt 0.0205 0.0005 0.6656
vt 0.9795 0.0005 0.6656
vt 0.9995 0.6656 0.9795
vt 0.9995 0.6829 0.9795
vt 0.0005 0.6829 0.9795
vt 0.0005 0.6656 0.9795
vt 0.9795 0.6656 0.9995
vt 0.0205 0.6829 0.9995
vt 0.0205 0.6656 0.0005
vt 0.9795 0.6829 0.0005
# 24 texture coords

g Rectangle003
usemtl 01___Default
s 1
f 33/109/105 34/110/106 38/111/107 37/112/108 
s 4
f 34/113/109 35/114/110 39/115/111 38/116/112 
s 2
f 35/117/113 36/118/114 40/119/115 39/120/116 
s 4
f 36/121/117 33/122/118 37/123/119 40/124/120 
s 16
f 35/125/121 34/105/122 33/126/123 36/106/124 
f 39/127/125 40/108/126 37/128/127 38/107/128 
# 6 polygons

#
# object Rectangle004
#

v  960.0000 1059.9258 0.0000
v  -960.0000 1059.9258 0.0000
v  -960.0000 1024.9180 -0.0000
v  960.0000 1024.9180 -0.0000
v  960.0000 1059.9257 280.0000
v  -960.0000 1059.9257 280.0000
v  -960.0000 1024.9180 280.0000
v  960.0000 1024.9180 280.0000
# 8 vertices

vn 0.0000 1.0000 0.0000
vn 0.0000 1.0000 0.0000
vn 0.0000 1.0000 0.0000
vn 0.0000 1.0000 0.0000
vn -1.0000 0.0000 -0.0000
vn -1.0000 0.0000 -0.0000
vn -1.0000 0.0000 -0.0000
vn -1.0000 0.0000 -0.0000
vn 0.0000 -1.0000 -0.0000
vn 0.0000 -1.0000 -0.0000
vn 0.0000 -1.0000 -0.0000
vn 0.0000 -1.0000 -0.0000
vn 1.0000 0.0000 -0.0000
vn 1.0000 0.0000 -0.0000
vn 1.0000 0.0000 -0.0000
vn 1.0000 0.0000 -0.0000
vn 0.0000 0.0000 -1.0000
vn 0.0000 0.0000 -1.0000
vn 0.0000 0.0000 -1.0000
vn 0.0000 0.0000 -1.0000
vn 0.0000 -0.0000 1.0000
vn 0.0000 -0.0000 1.0000
vn 0.0000 -0.0000 1.0000
vn 0.0000 -0.0000 1.0000
# 24 vertex normals

vt 0.9795 0.5247 0.9995
vt 0.0205 0.5074 0.9995
vt 0.0205 0.5247 0.0005
vt 0.9795 0.5074 0.0005
vt 0.9795 0.9995 0.5247
vt 0.0205 0.9995 0.5247
vt 0.0205 0.0005 0.5247
vt 0.9795 0.0005 0.5247
vt 0.0005 0.5247 0.0205
vt 0.0005 0.5074 0.0205
vt 0.9995 0.5074 0.0205
vt 0.9995 0.5247 0.0205
vt 0.9795 0.9995 0.5074
vt 0.0205 0.9995 0.5074
vt 0.0205 0.0005 0.5074
vt 0.9795 0.0005 0.5074
vt 0.9995 0.5074 0.9795
vt 0.9995 0.5247 0.9795
vt 0.0005 0.5247 0.9795
vt 0.0005 0.5074 0.9795
vt 0.9795 0.5074 0.9995
vt 0.0205 0.5247 0.9995
vt 0.0205 0.5074 0.0005
vt 0.9795 0.5247 0.0005
# 24 texture coords

g Rectangle004
usemtl 01___Default
s 1
f 41/133/129 42/134/130 46/135/131 45/136/132 
s 4
f 42/137/133 43/138/134 47/139/135 46/140/136 
s 2
f 43/141/137 44/142/138 48/143/139 47/144/140 
s 4
f 44/145/141 41/146/142 45/147/143 48/148/144 
s 16
f 43/149/145 42/129/146 41/150/147 44/130/148 
f 47/151/149 48/132/150 45/152/151 46/131/152 
# 6 polygons

#
# object Rectangle005
#

v  960.0000 739.9257 0.0000
v  -960.0000 739.9257 0.0000
v  -960.0000 704.9180 -0.0000
v  960.0000 704.9180 -0.0000
v  960.0000 739.9257 280.0000
v  -960.0000 739.9257 280.0000
v  -960.0000 704.9180 280.0000
v  960.0000 704.9180 280.0000
# 8 vertices

vn 0.0000 1.0000 0.0000
vn 0.0000 1.0000 0.0000
vn 0.0000 1.0000 0.0000
vn 0.0000 1.0000 0.0000
vn -1.0000 0.0000 -0.0000
vn -1.0000 0.0000 -0.0000
vn -1.0000 0.0000 -0.0000
vn -1.0000 0.0000 -0.0000
vn 0.0000 -1.0000 -0.0000
vn 0.0000 -1.0000 -0.0000
vn 0.0000 -1.0000 -0.0000
vn 0.0000 -1.0000 -0.0000
vn 1.0000 0.0000 -0.0000
vn 1.0000 0.0000 -0.0000
vn 1.0000 0.0000 -0.0000
vn 1.0000 0.0000 -0.0000
vn 0.0000 0.0000 -1.0000
vn 0.0000 0.0000 -1.0000
vn 0.0000 0.0000 -1.0000
vn 0.0000 0.0000 -1.0000
vn 0.0000 -0.0000 1.0000
vn 0.0000 -0.0000 1.0000
vn 0.0000 -0.0000 1.0000
vn 0.0000 -0.0000 1.0000
# 24 vertex normals

vt 0.9795 0.3664 0.9995
vt 0.0205 0.3491 0.9995
vt 0.0205 0.3664 0.0005
vt 0.9795 0.3491 0.0005
vt 0.9795 0.9995 0.3664
vt 0.0205 0.9995 0.3664
vt 0.0205 0.0005 0.3664
vt 0.9795 0.0005 0.3664
vt 0.0005 0.3664 0.0205
vt 0.0005 0.3491 0.0205
vt 0.9995 0.3491 0.0205
vt 0.9995 0.3664 0.0205
vt 0.9795 0.9995 0.3491
vt 0.0205 0.9995 0.3491
vt 0.0205 0.0005 0.3491
vt 0.9795 0.0005 0.3491
vt 0.9995 0.3491 0.9795
vt 0.9995 0.3664 0.9795
vt 0.0005 0.3664 0.9795
vt 0.0005 0.3491 0.9795
vt 0.9795 0.3491 0.9995
vt 0.0205 0.3664 0.9995
vt 0.0205 0.3491 0.0005
vt 0.9795 0.3664 0.0005
# 24 texture coords

g Rectangle005
usemtl 01___Default
s 1
f 49/157/153 50/158/154 54/159/155 53/160/156 
s 4
f 50/161/157 51/162/158 55/163/159 54/164/160 
s 2
f 51/165/161 52/166/162 56/167/163 55/168/164 
s 4
f 52/169/165 49/170/166 53/171/167 56/172/168 
s 16
f 51/173/169 50/153/170 49/174/171 52/154/172 
f 55/175/173 56/156/174 53/176/175 54/155/176 
# 6 polygons

#
# object Rectangle006
#

v  960.0000 419.9257 0.0000
v  -960.0000 419.9257 0.0000
v  -960.0000 384.9180 -0.0000
v  960.0000 384.9180 -0.0000
v  960.0000 419.9257 280.0000
v  -960.0000 419.9257 280.0000
v  -960.0000 384.9180 280.0000
v  960.0000 384.9180 280.0000
# 8 vertices

vn 0.0000 1.0000 0.0000
vn 0.0000 1.0000 0.0000
vn 0.0000 1.0000 0.0000
vn 0.0000 1.0000 0.0000
vn -1.0000 0.0000 -0.0000
vn -1.0000 0.0000 -0.0000
vn -1.0000 0.0000 -0.0000
vn -1.0000 0.0000 -0.0000
vn 0.0000 -1.0000 -0.0000
vn 0.0000 -1.0000 -0.0000
vn 0.0000 -1.0000 -0.0000
vn 0.0000 -1.0000 -0.0000
vn 1.0000 0.0000 -0.0000
vn 1.0000 0.0000 -0.0000
vn 1.0000 0.0000 -0.0000
vn 1.0000 0.0000 -0.0000
vn 0.0000 0.0000 -1.0000
vn 0.0000 0.0000 -1.0000
vn 0.0000 0.0000 -1.0000
vn 0.0000 0.0000 -1.0000
vn 0.0000 -0.0000 1.0000
vn 0.0000 -0.0000 1.0000
vn 0.0000 -0.0000 1.0000
vn 0.0000 -0.0000 1.0000
# 24 vertex normals

vt 0.9795 0.2082 0.9995
vt 0.0205 0.1909 0.9995
vt 0.0205 0.2082 0.0005
vt 0.9795 0.1909 0.0005
vt 0.9795 0.9995 0.2082
vt 0.0205 0.9995 0.2082
vt 0.0205 0.0005 0.2082
vt 0.9795 0.0005 0.2082
vt 0.0005 0.2082 0.0205
vt 0.0005 0.1909 0.0205
vt 0.9995 0.1909 0.0205
vt 0.9995 0.2082 0.0205
vt 0.9795 0.9995 0.1909
vt 0.0205 0.9995 0.1909
vt 0.0205 0.0005 0.1909
vt 0.9795 0.0005 0.1909
vt 0.9995 0.1909 0.9795
vt 0.9995 0.2082 0.9795
vt 0.0005 0.2082 0.9795
vt 0.0005 0.1909 0.9795
vt 0.9795 0.1909 0.9995
vt 0.0205 0.2082 0.9995
vt 0.0205 0.1909 0.0005
vt 0.9795 0.2082 0.0005
# 24 texture coords

g Rectangle006
usemtl 01___Default
s 1
f 57/181/177 58/182/178 62/183/179 61/184/180 
s 4
f 58/185/181 59/186/182 63/187/183 62/188/184 
s 2
f 59/189/185 60/190/186 64/191/187 63/192/188 
s 4
f 60/193/189 57/194/190 61/195/191 64/196/192 
s 16
f 59/197/193 58/177/194 57/198/195 60/178/196 
f 63/199/197 64/180/198 61/200/199 62/179/200 
# 6 polygons

#
# object Rectangle007
#

v  960.0000 99.9257 0.0000
v  -960.0000 99.9257 0.0000
v  -960.0000 64.9180 -0.0000
v  960.0000 64.9180 -0.0000
v  960.0000 99.9257 280.0000
v  -960.0000 99.9257 280.0000
v  -960.0000 64.9180 280.0000
v  960.0000 64.9180 280.0000
# 8 vertices

vn 0.0000 1.0000 0.0000
vn 0.0000 1.0000 0.0000
vn 0.0000 1.0000 0.0000
vn 0.0000 1.0000 0.0000
vn -1.0000 0.0000 -0.0000
vn -1.0000 0.0000 -0.0000
vn -1.0000 0.0000 -0.0000
vn -1.0000 0.0000 -0.0000
vn 0.0000 -1.0000 -0.0000
vn 0.0000 -1.0000 -0.0000
vn 0.0000 -1.0000 -0.0000
vn 0.0000 -1.0000 -0.0000
vn 1.0000 0.0000 -0.0000
vn 1.0000 0.0000 -0.0000
vn 1.0000 0.0000 -0.0000
vn 1.0000 0.0000 -0.0000
vn 0.0000 0.0000 -1.0000
vn 0.0000 0.0000 -1.0000
vn 0.0000 0.0000 -1.0000
vn 0.0000 0.0000 -1.0000
vn 0.0000 -0.0000 1.0000
vn 0.0000 -0.0000 1.0000
vn 0.0000 -0.0000 1.0000
vn 0.0000 -0.0000 1.0000
# 24 vertex normals

vt 0.9795 0.0499 0.9995
vt 0.0205 0.0326 0.9995
vt 0.0205 0.0499 0.0005
vt 0.9795 0.0326 0.0005
vt 0.9795 0.9995 0.0499
vt 0.0205 0.9995 0.0499
vt 0.0205 0.0005 0.0499
vt 0.9795 0.0005 0.0499
vt 0.0005 0.0499 0.0205
vt 0.0005 0.0326 0.0205
vt 0.9995 0.0326 0.0205
vt 0.9995 0.0499 0.0205
vt 0.9795 0.9995 0.0326
vt 0.0205 0.9995 0.0326
vt 0.0205 0.0005 0.0326
vt 0.9795 0.0005 0.0326
vt 0.9995 0.0326 0.9795
vt 0.9995 0.0499 0.9795
vt 0.0005 0.0499 0.9795
vt 0.0005 0.0326 0.9795
vt 0.9795 0.0326 0.9995
vt 0.0205 0.0499 0.9995
vt 0.0205 0.0326 0.0005
vt 0.9795 0.0499 0.0005
# 24 texture coords

g Rectangle007
usemtl 01___Default
s 1
f 65/205/201 66/206/202 70/207/203 69/208/204 
s 4
f 66/209/205 67/210/206 71/211/207 70/212/208 
s 2
f 67/213/209 68/214/210 72/215/211 71/216/212 
s 4
f 68/217/213 65/218/214 69/219/215 72/220/216 
s 16
f 67/221/217 66/201/218 65/222/219 68/202/220 
f 71/223/221 72/204/222 69/224/223 70/203/224 
# 6 polygons

#
# object Rectangle008
#

v  -175.6697 1979.9998 0.0000
v  -220.6697 1979.9998 0.0000
v  -220.6697 -0.0001 -0.0000
v  -175.6697 -0.0001 -0.0000
v  -175.6697 1979.9998 280.0000
v  -220.6697 1979.9998 280.0000
v  -220.6697 -0.0001 280.0000
v  -175.6697 -0.0001 280.0000
# 8 vertices

vn 0.0000 1.0000 0.0000
vn 0.0000 1.0000 0.0000
vn 0.0000 1.0000 0.0000
vn 0.0000 1.0000 0.0000
vn -1.0000 0.0000 -0.0000
vn -1.0000 0.0000 -0.0000
vn -1.0000 0.0000 -0.0000
vn -1.0000 0.0000 -0.0000
vn 0.0000 -1.0000 -0.0000
vn 0.0000 -1.0000 -0.0000
vn 0.0000 -1.0000 -0.0000
vn 0.0000 -1.0000 -0.0000
vn 1.0000 0.0000 -0.0000
vn 1.0000 0.0000 -0.0000
vn 1.0000 0.0000 -0.0000
vn 1.0000 0.0000 -0.0000
vn 0.0000 0.0000 -1.0000
vn 0.0000 0.0000 -1.0000
vn 0.0000 0.0000 -1.0000
vn 0.0000 0.0000 -1.0000
vn 0.0000 -0.0000 1.0000
vn 0.0000 -0.0000 1.0000
vn 0.0000 -0.0000 1.0000
vn 0.0000 -0.0000 1.0000
# 24 vertex normals

vt 0.6102 0.9797 0.9995
vt 0.5877 0.0005 0.9995
vt 0.3898 0.9797 0.0005
vt 0.4123 0.0005 0.0005
vt 0.4123 0.9995 0.9797
vt 0.3898 0.9995 0.9797
vt 0.3898 0.0005 0.9797
vt 0.4123 0.0005 0.9797
vt 0.0005 0.9797 0.3898
vt 0.0005 0.0005 0.3898
vt 0.9995 0.0005 0.3898
vt 0.9995 0.9797 0.3898
vt 0.6102 0.9995 0.0005
vt 0.5877 0.9995 0.0005
vt 0.5877 0.0005 0.0005
vt 0.6102 0.0005 0.0005
vt 0.9995 0.0005 0.4123
vt 0.9995 0.9797 0.4123
vt 0.0005 0.9797 0.4123
vt 0.0005 0.0005 0.4123
vt 0.6102 0.0005 0.9995
vt 0.5877 0.9797 0.9995
vt 0.3898 0.0005 0.0005
vt 0.4123 0.9797 0.0005
# 24 texture coords

g Rectangle008
usemtl 01___Default
s 1
f 73/229/225 74/230/226 78/231/227 77/232/228 
s 4
f 74/233/229 75/234/230 79/235/231 78/236/232 
s 2
f 75/237/233 76/238/234 80/239/235 79/240/236 
s 4
f 76/241/237 73/242/238 77/243/239 80/244/240 
s 16
f 75/245/241 74/225/242 73/246/243 76/226/244 
f 79/247/245 80/228/246 77/248/247 78/227/248 
# 6 polygons

#
# object Rectangle009
#

v  220.6697 1979.9998 0.0000
v  175.6697 1979.9998 0.0000
v  175.6697 -0.0001 -0.0000
v  220.6697 -0.0001 -0.0000
v  220.6697 1979.9998 280.0000
v  175.6697 1979.9998 280.0000
v  175.6697 -0.0001 280.0000
v  220.6697 -0.0001 280.0000
# 8 vertices

vn 0.0000 1.0000 0.0000
vn 0.0000 1.0000 0.0000
vn 0.0000 1.0000 0.0000
vn 0.0000 1.0000 0.0000
vn -1.0000 0.0000 -0.0000
vn -1.0000 0.0000 -0.0000
vn -1.0000 0.0000 -0.0000
vn -1.0000 0.0000 -0.0000
vn 0.0000 -1.0000 -0.0000
vn 0.0000 -1.0000 -0.0000
vn 0.0000 -1.0000 -0.0000
vn 0.0000 -1.0000 -0.0000
vn 1.0000 0.0000 -0.0000
vn 1.0000 0.0000 -0.0000
vn 1.0000 0.0000 -0.0000
vn 1.0000 0.0000 -0.0000
vn 0.0000 0.0000 -1.0000
vn 0.0000 0.0000 -1.0000
vn 0.0000 0.0000 -1.0000
vn 0.0000 0.0000 -1.0000
vn 0.0000 -0.0000 1.0000
vn 0.0000 -0.0000 1.0000
vn 0.0000 -0.0000 1.0000
vn 0.0000 -0.0000 1.0000
# 24 vertex normals

vt 0.4123 0.9797 0.9995
vt 0.3898 0.0005 0.9995
vt 0.5877 0.9797 0.0005
vt 0.6102 0.0005 0.0005
vt 0.6102 0.9995 0.9797
vt 0.5877 0.9995 0.9797
vt 0.5877 0.0005 0.9797
vt 0.6102 0.0005 0.9797
vt 0.0005 0.9797 0.5877
vt 0.0005 0.0005 0.5877
vt 0.9995 0.0005 0.5877
vt 0.9995 0.9797 0.5877
vt 0.4123 0.9995 0.0005
vt 0.3898 0.9995 0.0005
vt 0.3898 0.0005 0.0005
vt 0.4123 0.0005 0.0005
vt 0.9995 0.0005 0.6102
vt 0.9995 0.9797 0.6102
vt 0.0005 0.9797 0.6102
vt 0.0005 0.0005 0.6102
vt 0.4123 0.0005 0.9995
vt 0.3898 0.9797 0.9995
vt 0.5877 0.0005 0.0005
vt 0.6102 0.9797 0.0005
# 24 texture coords

g Rectangle009
usemtl 01___Default
s 1
f 81/253/249 82/254/250 86/255/251 85/256/252 
s 4
f 82/257/253 83/258/254 87/259/255 86/260/256 
s 2
f 83/261/257 84/262/258 88/263/259 87/264/260 
s 4
f 84/265/261 81/266/262 85/267/263 88/268/264 
s 16
f 83/269/265 82/249/266 81/270/267 84/250/268 
f 87/271/269 88/252/270 85/272/271 86/251/272 
# 6 polygons

#
# object Rectangle010
#

v  961.7257 65.0641 213.7057
v  -960.6366 65.0641 213.7057
v  -960.6366 0.0000 213.7057
v  961.7257 0.0000 213.7057
# 4 vertices

vn 0.0000 -0.0000 1.0000
vn 0.0000 -0.0000 1.0000
vn 0.0000 -0.0000 1.0000
vn 0.0000 -0.0000 1.0000
# 4 vertex normals

vt 0.9804 0.0327 0.9995
vt 0.0202 0.0327 0.9995
vt 0.0202 0.0005 0.9995
vt 0.9804 0.0005 0.9995
# 4 texture coords

g Rectangle010
usemtl 01___Default
s 1
f 89/273/273 90/274/274 91/275/275 92/276/276 
# 1 polygons

